<svg xmlns="http://www.w3.org/2000/svg" xmlns:xlink="http://www.w3.org/1999/xlink"><defs>
<clipPath id="clip0_5_17">
<rect width="22" height="22" fill="white"/>
</clipPath>

<clipPath id="clip0_9_197">
<rect width="20" height="20" fill="white"/>
</clipPath>
<radialGradient id="0" cx="217.76" cy="3290.99" r="4271.92" gradientUnits="userSpaceOnUse"><stop offset=".09" stop-color="#fa8f21"/><stop offset=".78" stop-color="#d82d7e"/></radialGradient><radialGradient id="1" cx="2330.61" cy="3182.95" r="3759.33" gradientUnits="userSpaceOnUse"><stop offset=".64" stop-color="#8c3aaa" stop-opacity="0"/><stop offset="1" stop-color="#8c3aaa"/></radialGradient>
<clipPath id="clip0_8_49">
<rect width="25" height="25" fill="white"/>
</clipPath>
</defs><symbol id="arrow" viewBox="0 0 10 5">
<path d="M5 4.53732L0.669872 0.910457L9.33013 0.910457L5 4.53732Z" fill="currentColor"/>
</symbol><symbol id="camera" viewBox="0 0 22 22">
<g clip-path="url(#clip0_5_17)">
<path d="M12.9443 9.74291C14.0183 10.8169 14.0183 12.5581 12.9443 13.6321C11.8703 14.7061 10.1291 14.7061 9.05512 13.6321C7.98114 12.5581 7.98114 10.8169 9.05512 9.74291C10.1291 8.66893 11.8703 8.66893 12.9443 9.74291Z" fill="#989898"/>
<path d="M19.25 4.12481H17.3499L15.9742 1.37471H6.02455L4.65015 4.12616L2.75275 4.12953C1.24009 4.13224 0.00869272 5.36494 0.00738656 6.87828L0 17.8746C0 19.3913 1.23337 20.6253 2.7501 20.6253H19.25C20.7667 20.6253 22.0001 19.392 22.0001 17.8752V6.87486C22 5.35818 20.7666 4.12481 19.25 4.12481ZM10.9997 17.1877C7.9669 17.1877 5.49947 14.7203 5.49947 11.6875C5.49947 8.65475 7.9669 6.18732 10.9997 6.18732C14.0324 6.18732 16.4999 8.65475 16.4999 11.6875C16.4999 14.7203 14.0324 17.1877 10.9997 17.1877Z" fill="#989898"/>
</g>

</symbol><symbol id="close" viewBox="0 0 20 20">
<g clip-path="url(#clip0_9_197)">
<path d="M11.1047 10.0008L19.7709 1.33447C20.0761 1.02935 20.0761 0.534663 19.7709 0.229585C19.4658 -0.0754924 18.9711 -0.0755315 18.6661 0.229585L9.99975 8.8959L1.33347 0.229585C1.02836 -0.0755315 0.533671 -0.0755315 0.228593 0.229585C-0.0764842 0.534702 -0.0765233 1.02939 0.228593 1.33447L8.89487 10.0007L0.228593 18.667C-0.0765233 18.9722 -0.0765233 19.4669 0.228593 19.7719C0.381132 19.9245 0.581093 20.0007 0.781053 20.0007C0.981014 20.0007 1.18094 19.9245 1.33351 19.7719L9.99975 11.1057L18.666 19.7719C18.8186 19.9245 19.0185 20.0007 19.2185 20.0007C19.4184 20.0007 19.6184 19.9245 19.7709 19.7719C20.0761 19.4668 20.0761 18.9721 19.7709 18.667L11.1047 10.0008Z" fill="CurrentColor"/>
</g>

</symbol><symbol id="instagram" viewBox="0 0 3364.7 3364.7"><path d="M853.2,3352.8c-200.1-9.1-308.8-42.4-381.1-70.6-95.8-37.3-164.1-81.7-236-153.5S119.7,2988.6,82.6,2892.8c-28.2-72.3-61.5-181-70.6-381.1C2,2295.4,0,2230.5,0,1682.5s2.2-612.8,11.9-829.3C21,653.1,54.5,544.6,82.5,472.1,119.8,376.3,164.3,308,236,236c71.8-71.8,140.1-116.4,236-153.5C544.3,54.3,653,21,853.1,11.9,1069.5,2,1134.5,0,1682.3,0c548,0,612.8,2.2,829.3,11.9,200.1,9.1,308.6,42.6,381.1,70.6,95.8,37.1,164.1,81.7,236,153.5s116.2,140.2,153.5,236c28.2,72.3,61.5,181,70.6,381.1,9.9,216.5,11.9,281.3,11.9,829.3,0,547.8-2,612.8-11.9,829.3-9.1,200.1-42.6,308.8-70.6,381.1-37.3,95.8-81.7,164.1-153.5,235.9s-140.2,116.2-236,153.5c-72.3,28.2-181,61.5-381.1,70.6-216.3,9.9-281.3,11.9-829.3,11.9-547.8,0-612.8-1.9-829.1-11.9" fill="url(#0)"/><path d="M853.2,3352.8c-200.1-9.1-308.8-42.4-381.1-70.6-95.8-37.3-164.1-81.7-236-153.5S119.7,2988.6,82.6,2892.8c-28.2-72.3-61.5-181-70.6-381.1C2,2295.4,0,2230.5,0,1682.5s2.2-612.8,11.9-829.3C21,653.1,54.5,544.6,82.5,472.1,119.8,376.3,164.3,308,236,236c71.8-71.8,140.1-116.4,236-153.5C544.3,54.3,653,21,853.1,11.9,1069.5,2,1134.5,0,1682.3,0c548,0,612.8,2.2,829.3,11.9,200.1,9.1,308.6,42.6,381.1,70.6,95.8,37.1,164.1,81.7,236,153.5s116.2,140.2,153.5,236c28.2,72.3,61.5,181,70.6,381.1,9.9,216.5,11.9,281.3,11.9,829.3,0,547.8-2,612.8-11.9,829.3-9.1,200.1-42.6,308.8-70.6,381.1-37.3,95.8-81.7,164.1-153.5,235.9s-140.2,116.2-236,153.5c-72.3,28.2-181,61.5-381.1,70.6-216.3,9.9-281.3,11.9-829.3,11.9-547.8,0-612.8-1.9-829.1-11.9" fill="url(#1)"/><path d="M1269.25,1689.52c0-230.11,186.49-416.7,416.6-416.7s416.7,186.59,416.7,416.7-186.59,416.7-416.7,416.7-416.6-186.59-416.6-416.7m-225.26,0c0,354.5,287.36,641.86,641.86,641.86s641.86-287.36,641.86-641.86-287.36-641.86-641.86-641.86S1044,1335,1044,1689.52m1159.13-667.31a150,150,0,1,0,150.06-149.94h-0.06a150.07,150.07,0,0,0-150,149.94M1180.85,2707c-121.87-5.55-188.11-25.85-232.13-43-58.36-22.72-100-49.78-143.78-93.5s-70.88-85.32-93.5-143.68c-17.16-44-37.46-110.26-43-232.13-6.06-131.76-7.27-171.34-7.27-505.15s1.31-373.28,7.27-505.15c5.55-121.87,26-188,43-232.13,22.72-58.36,49.78-100,93.5-143.78s85.32-70.88,143.78-93.5c44-17.16,110.26-37.46,232.13-43,131.76-6.06,171.34-7.27,505-7.27S2059.13,666,2191,672c121.87,5.55,188,26,232.13,43,58.36,22.62,100,49.78,143.78,93.5s70.78,85.42,93.5,143.78c17.16,44,37.46,110.26,43,232.13,6.06,131.87,7.27,171.34,7.27,505.15s-1.21,373.28-7.27,505.15c-5.55,121.87-25.95,188.11-43,232.13-22.72,58.36-49.78,100-93.5,143.68s-85.42,70.78-143.78,93.5c-44,17.16-110.26,37.46-232.13,43-131.76,6.06-171.34,7.27-505.15,7.27s-373.28-1.21-505-7.27M1170.5,447.09c-133.07,6.06-224,27.16-303.41,58.06-82.19,31.91-151.86,74.72-221.43,144.18S533.39,788.47,501.48,870.76c-30.9,79.46-52,170.34-58.06,303.41-6.16,133.28-7.57,175.89-7.57,515.35s1.41,382.07,7.57,515.35c6.06,133.08,27.16,223.95,58.06,303.41,31.91,82.19,74.62,152,144.18,221.43s139.14,112.18,221.43,144.18c79.56,30.9,170.34,52,303.41,58.06,133.35,6.06,175.89,7.57,515.35,7.57s382.07-1.41,515.35-7.57c133.08-6.06,223.95-27.16,303.41-58.06,82.19-32,151.86-74.72,221.43-144.18s112.18-139.24,144.18-221.43c30.9-79.46,52.1-170.34,58.06-303.41,6.06-133.38,7.47-175.89,7.47-515.35s-1.41-382.07-7.47-515.35c-6.06-133.08-27.16-224-58.06-303.41-32-82.19-74.72-151.86-144.18-221.43S2586.8,537.06,2504.71,505.15c-79.56-30.9-170.44-52.1-303.41-58.06C2068,441,2025.41,439.52,1686,439.52s-382.1,1.41-515.45,7.57" fill="#fff"/></symbol><symbol id="pinterest" viewBox="0 0 25 25">
<g clip-path="url(#clip0_8_49)">
<path d="M12.5 25C19.4035 25 24.9998 19.4037 24.9998 12.5002C24.9998 5.59679 19.4035 0.00044632 12.5 0.00044632C5.59659 0.00044632 0.000244141 5.59679 0.000244141 12.5002C0.000244141 19.4037 5.59659 25 12.5 25Z" fill="#CB2027"/>
<path d="M13.509 16.7387C12.564 16.6656 12.1669 16.197 11.4258 15.7472C11.0185 17.8842 10.5207 19.9328 9.04631 21.0031C8.59064 17.773 9.71432 15.347 10.2362 12.7718C9.34667 11.2745 10.3431 8.26062 12.2193 9.00328C14.5284 9.9164 10.2201 14.5709 13.1123 15.1522C16.1318 15.7592 17.3644 9.91306 15.4918 8.01151C12.7863 5.26614 7.61669 7.94912 8.2524 11.8792C8.40726 12.84 9.40015 13.1317 8.64902 14.4575C6.91748 14.074 6.40098 12.7083 6.46738 10.8877C6.57456 7.90745 9.14524 5.82074 11.7237 5.53196C14.9847 5.16698 18.0454 6.7294 18.4678 9.79675C18.9431 13.2587 16.9956 17.0079 13.509 16.7387Z" fill="#F1F2F2"/>
</g>

</symbol><symbol id="send" viewBox="0 0 17 17">
<path d="M16.6479 7.94818L0.862529 0.662644C0.611178 0.548504 0.311256 0.616502 0.136404 0.83264C-0.0396636 1.04878 -0.0457348 1.35598 0.121832 1.57819L5.31278 8.49945L0.121832 15.4207C-0.0457348 15.6429 -0.0396636 15.9513 0.135189 16.1663C0.252972 16.3132 0.429039 16.3921 0.607535 16.3921C0.693747 16.3921 0.779959 16.3739 0.861314 16.3363L16.6466 9.05072C16.8628 8.95115 17 8.73623 17 8.49945C17 8.26267 16.8628 8.04775 16.6479 7.94818Z" fill="white"/>
</symbol><symbol id="video-arrow" viewBox="0 0 68 75">
<path d="M12.2436 1.65369C5.48193 -2.2249 0 0.952489 0 8.74492V66.2496C0 74.0498 5.48193 77.2231 12.2436 73.3482L62.5056 44.5233C69.2695 40.6433 69.2695 34.3572 62.5056 30.4781L12.2436 1.65369Z" fill="CurrentColor"/>
</symbol><symbol id="vk" viewBox="0 0 25 25">
<path d="M12.5 25C19.4036 25 25 19.4036 25 12.5C25 5.59644 19.4036 0 12.5 0C5.59644 0 0 5.59644 0 12.5C0 19.4036 5.59644 25 12.5 25Z" fill="#4D76A1"/>
<path fill-rule="evenodd" clip-rule="evenodd" d="M12.0278 17.9824H13.0089C13.0089 17.9824 13.3053 17.9498 13.4566 17.7867C13.5959 17.637 13.5914 17.3558 13.5914 17.3558C13.5914 17.3558 13.5722 16.0393 14.1832 15.8455C14.7855 15.6545 15.5589 17.1178 16.3787 17.6804C16.9986 18.1063 17.4697 18.0129 17.4697 18.0129L19.6616 17.9824C19.6616 17.9824 20.8082 17.9117 20.2645 17.0102C20.22 16.9364 19.9479 16.3433 18.6348 15.1244C17.2604 13.8488 17.4445 14.0551 19.1001 11.8485C20.1084 10.5046 20.5114 9.68416 20.3855 9.33277C20.2654 8.99809 19.5239 9.08655 19.5239 9.08655L17.0559 9.10192C17.0559 9.10192 16.8729 9.07697 16.7372 9.15808C16.6047 9.23762 16.5193 9.42301 16.5193 9.42301C16.5193 9.42301 16.1287 10.4629 15.6077 11.3473C14.5088 13.2135 14.0694 13.312 13.8898 13.1961C13.472 12.926 13.5763 12.1112 13.5763 11.5323C13.5763 9.72383 13.8505 8.96979 13.0421 8.7746C12.7739 8.70975 12.5764 8.66697 11.8904 8.66006C11.0098 8.65093 10.2644 8.66274 9.84239 8.86952C9.56163 9.007 9.34504 9.31338 9.47695 9.33099C9.64006 9.35282 10.0095 9.43059 10.2054 9.69731C10.4583 10.0414 10.4494 10.8141 10.4494 10.8141C10.4494 10.8141 10.5946 12.943 10.11 13.2075C9.77732 13.3888 9.32098 13.0185 8.34122 11.3255C7.83919 10.4583 7.46017 9.49967 7.46017 9.49967C7.46017 9.49967 7.38708 9.32051 7.25673 9.2247C7.09853 9.10861 6.87748 9.07162 6.87748 9.07162L4.53226 9.08699C4.53226 9.08699 4.1802 9.0968 4.05096 9.24988C3.93598 9.38603 4.04182 9.66768 4.04182 9.66768C4.04182 9.66768 5.87789 13.9633 7.95685 16.128C9.86311 18.1127 12.0278 17.9824 12.0278 17.9824Z" fill="white"/>
</symbol></svg>